<svg data-v-fde0c5aa="" xmlns="http://www.w3.org/2000/svg" viewBox="0 0 300 300" class="iconLeft"><!----><defs data-v-fde0c5aa=""><!----></defs><rect data-v-fde0c5aa="" fill="transparent" x="0" y="0" width="300px" height="300px" class="logo-background-square"></rect><defs data-v-fde0c5aa=""><!----></defs><g data-v-fde0c5aa="" id="f2da6820-a16e-4223-b7b2-68b5c6e82e19" fill="#000000" transform="matrix(3.4212569352869684,0,0,3.4212569352869684,115.34926304261474,122.04833220906671)"><path d="M3.28 13.47L3.60 11.63L1.72 11.63L3.26 2.87L1.72 2.87L-0.14 13.47ZM8.27 12.78C8.67 12.14 8.89 11.49 9.45 8.33C9.86 5.99 10.00 4.97 10.00 4.34C10.00 3.05 9.52 2.69 8.26 2.69C7.22 2.69 6.69 2.91 6.31 3.56C5.92 4.21 5.70 4.83 5.22 7.60C4.73 10.33 4.59 11.37 4.59 12.00C4.59 13.30 5.04 13.65 6.33 13.65C7.35 13.65 7.88 13.44 8.27 12.78ZM7.24 11.47C7.14 11.72 6.97 11.82 6.65 11.82C6.24 11.82 6.19 11.65 6.19 11.23C6.19 10.86 6.29 10.21 6.69 7.91C7.11 5.47 7.22 5.11 7.38 4.75C7.50 4.49 7.64 4.40 7.97 4.40C8.36 4.40 8.43 4.52 8.43 4.94C8.43 5.29 8.34 5.91 7.95 8.13C7.49 10.72 7.39 11.09 7.24 11.47ZM12.33 13.47L13.89 4.62L15.22 4.62L15.53 2.87L11.30 2.87L10.99 4.62L12.33 4.62L10.78 13.47ZM17.49 13.47L19.04 4.62L20.37 4.62L20.68 2.87L16.45 2.87L16.14 4.62L17.49 4.62L15.93 13.47ZM23.79 12.78C24.18 12.14 24.40 11.49 24.96 8.33C25.37 5.99 25.51 4.97 25.51 4.34C25.51 3.05 25.03 2.69 23.77 2.69C22.74 2.69 22.20 2.91 21.83 3.56C21.43 4.21 21.21 4.83 20.73 7.60C20.24 10.33 20.10 11.37 20.10 12.00C20.10 13.30 20.55 13.65 21.84 13.65C22.86 13.65 23.39 13.44 23.79 12.78ZM22.75 11.47C22.65 11.72 22.48 11.82 22.16 11.82C21.76 11.82 21.70 11.65 21.70 11.23C21.70 10.86 21.80 10.21 22.20 7.91C22.62 5.47 22.74 5.11 22.89 4.75C23.02 4.49 23.16 4.40 23.48 4.40C23.87 4.40 23.94 4.52 23.94 4.94C23.94 5.29 23.86 5.91 23.46 8.13C23.00 10.72 22.90 11.09 22.75 11.47ZM29.54 13.47L29.85 11.70L27.59 11.70L27.58 11.59L28.94 10.09C30.32 8.55 30.53 8.22 30.84 6.48C31.05 5.28 31.11 4.75 31.11 4.34C31.11 3.00 30.67 2.69 29.30 2.69C27.99 2.69 27.40 3.01 27.01 4.17C26.71 5.07 26.53 6.02 26.46 6.87L27.93 6.87C28.01 6.17 28.15 5.49 28.29 4.96C28.39 4.58 28.57 4.40 29.01 4.40C29.44 4.40 29.51 4.54 29.51 4.90C29.51 5.11 29.50 5.47 29.33 6.29C29.01 7.87 28.94 7.97 27.37 9.72L25.73 11.55L25.40 13.47ZM33.22 8.04C33.45 7.83 33.74 7.66 34.09 7.66C34.38 7.66 34.55 7.69 34.55 8.09C34.55 8.33 34.50 8.68 34.31 9.77C34.12 10.84 34.02 11.19 33.87 11.54C33.77 11.73 33.64 11.82 33.28 11.82C32.80 11.82 32.75 11.54 32.75 11.19C32.75 10.78 32.90 10.01 33.05 9.41L31.61 9.41C31.39 10.26 31.21 11.34 31.21 12.04C31.21 13.27 31.63 13.65 32.90 13.65C33.98 13.65 34.51 13.43 34.92 12.78C35.31 12.17 35.60 11.23 35.83 9.95C36.08 8.51 36.13 7.99 36.13 7.59C36.13 6.61 35.87 6.16 34.86 6.16C34.37 6.16 34.03 6.29 33.84 6.43L33.80 6.41L34.20 4.63L36.64 4.63L36.95 2.87L33.17 2.87L32.07 7.62ZM41.99 5.78C42.15 5.15 42.28 4.49 42.28 3.85C42.28 2.81 41.78 2.69 40.49 2.69C39.51 2.69 38.98 2.76 38.57 3.39C38.12 4.07 37.83 5.43 37.34 8.16C36.99 10.19 36.81 11.33 36.81 12.05C36.81 13.38 37.21 13.65 38.56 13.65C39.47 13.65 39.94 13.51 40.35 13.05C40.80 12.53 41.06 11.73 41.30 10.39C41.50 9.31 41.55 8.79 41.55 8.40C41.55 7.15 41.02 6.89 40.10 6.89C39.73 6.89 39.38 6.99 39.10 7.10L39.06 7.07C39.33 5.57 39.42 5.17 39.55 4.90C39.76 4.47 39.91 4.40 40.29 4.40C40.63 4.40 40.74 4.45 40.74 4.77C40.74 5.18 40.68 5.52 40.59 5.78ZM38.81 8.50C38.96 8.34 39.21 8.25 39.52 8.25C39.86 8.25 40.03 8.33 40.03 8.75C40.03 8.89 40.01 9.09 39.83 10.11C39.68 10.99 39.56 11.34 39.40 11.59C39.28 11.76 39.20 11.82 38.91 11.82C38.47 11.82 38.39 11.62 38.39 11.23C38.39 10.96 38.44 10.54 38.63 9.58Z"></path></g><defs data-v-fde0c5aa=""><linearGradient data-v-fde0c5aa="" gradientTransform="rotate(25)" id="a2fddfd2-d340-4147-af9f-31e187536425" x1="0%" y1="0%" x2="100%" y2="0%"><stop data-v-fde0c5aa="" offset="0%" stop-color="#041804" stop-opacity="1"></stop><stop data-v-fde0c5aa="" offset="100%" stop-opacity="1"></stop></linearGradient></defs><g data-v-fde0c5aa="" id="dfa9e1a7-d755-486e-bda7-8b1df3fe1f43" stroke="none" fill="url(#a2fddfd2-d340-4147-af9f-31e187536425)" transform="matrix(0.6943369825222887,0,0,0.6943369825222887,36.73522741017884,116.32257448095352)"><path d="M4.702 89.006h89.107V16.101H53.306v8.1h32.402v56.704H12.803V64.704H4.702zM4.702 24.201h8.101v8.101H4.702z"></path><path d="M37.104 40.402h8.101v8.101h-8.101z"></path><path d="M45.205 24.201v-8.1H29.004V8h-8.101v8.101h-8.1v8.1h8.1v8.101h-8.1v8.1h8.1v8.101H4.702v8.101h16.201v8.1h8.101v-8.1h8.1v-8.101h-8.1v-8.101h8.1v-8.1h-8.1v-8.101z"></path></g><!----></svg>